<?xml version="1.0" encoding="UTF-8"?>
<svg version="1.1" xmlns="http://www.w3.org/2000/svg" width="160" height="160">
<path d="M0 0 C1.54045755 1.33180026 3.06205555 2.68577641 4.5625 4.0625 C5.31789062 4.72636719 6.07328125 5.39023437 6.8515625 6.07421875 C16.50171249 15.04454718 23.3618504 26.62528256 27.5625 39.0625 C27.88089844 39.98417969 28.19929687 40.90585937 28.52734375 41.85546875 C34.53777838 62.82274533 30.96117124 85.54285958 20.69921875 104.43359375 C17.83571097 109.43986246 14.45848252 113.8164005 10.5625 118.0625 C9.89863281 118.81789062 9.23476562 119.57328125 8.55078125 120.3515625 C-0.41954718 130.00171249 -12.00028256 136.8618504 -24.4375 141.0625 C-25.35917969 141.38089844 -26.28085938 141.69929687 -27.23046875 142.02734375 C-48.19774533 148.03777838 -70.91785958 144.46117124 -89.80859375 134.19921875 C-94.81486246 131.33571097 -99.1914005 127.95848252 -103.4375 124.0625 C-104.19289063 123.39863281 -104.94828125 122.73476562 -105.7265625 122.05078125 C-115.37671249 113.08045282 -122.2368504 101.49971744 -126.4375 89.0625 C-126.91509766 87.67998047 -126.91509766 87.67998047 -127.40234375 86.26953125 C-133.41277838 65.30225467 -129.83617124 42.58214042 -119.57421875 23.69140625 C-116.71071097 18.68513754 -113.33348252 14.3085995 -109.4375 10.0625 C-108.77363281 9.30710937 -108.10976562 8.55171875 -107.42578125 7.7734375 C-98.45545282 -1.87671249 -86.87471744 -8.7368504 -74.4375 -12.9375 C-73.51582031 -13.25589844 -72.59414062 -13.57429687 -71.64453125 -13.90234375 C-47.35507071 -20.86510853 -19.86931881 -15.38567036 0 0 Z " fill="#7B6EDF" transform="translate(129.4375,15.9375)"/>
<path d="M0 0 C5.28 0 10.56 0 16 0 C17.40724777 4.19875741 18.81356465 8.39780318 20.2175293 12.59765625 C20.69517516 14.02557279 21.17335998 15.45330917 21.65209961 16.88085938 C22.34110865 18.93572332 23.02816112 20.99123264 23.71484375 23.046875 C24.12855225 24.28276367 24.54226074 25.51865234 24.96850586 26.79199219 C25.73977585 29.19068749 26.44014035 31.54626107 27 34 C27.66 34 28.32 34 29 34 C29.23460938 32.78441406 29.46921875 31.56882812 29.7109375 30.31640625 C31.11611101 23.99312547 33.38456475 18.00417857 35.625 11.9375 C36.04523438 10.78572266 36.46546875 9.63394531 36.8984375 8.44726562 C37.92726866 5.62967121 38.96293878 2.81457561 40 0 C45.28 0 50.56 0 56 0 C56 16.83 56 33.66 56 51 C52.04 51 48.08 51 44 51 C43.67 42.09 43.34 33.18 43 24 C42.0925 26.784375 41.185 29.56875 40.25 32.4375 C38.15213362 38.80140911 35.91118961 44.95368311 33 51 C29.7 51 26.4 51 23 51 C19.3628341 42.10915002 16.03797829 33.11393486 13 24 C12.67 32.91 12.34 41.82 12 51 C8.04 51 4.08 51 0 51 C0 34.17 0 17.34 0 0 Z " fill="#FAF7FD" transform="translate(52,53)"/>
</svg>
